<svg xmlns="http://www.w3.org/2000/svg" viewBox="0 0 1 1" aria-hidden="true">
  <symbol id="ic-congresso" viewBox="0 0 24 24" fill="none" stroke="currentColor" stroke-width="2" stroke-linecap="round" stroke-linejoin="round">
    <!-- púlpito + fala -->
    <path d="M4 10h16M7 10V7a3 3 0 0 1 3-3h4a3 3 0 0 1 3 3v3"/>
    <rect x="9" y="14" width="6" height="6" rx="1"/>
    <path d="M12 10v4"/>
  </symbol>

  <symbol id="ic-estandes" viewBox="0 0 24 24" fill="none" stroke="currentColor" stroke-width="2" stroke-linecap="round" stroke-linejoin="round">
    <!-- quiosque -->
    <path d="M3 10l3-5h12l3 5"/>
    <rect x="4" y="10" width="16" height="8" rx="2"/>
    <path d="M9 18v-4h6v4"/>
  </symbol>

  <symbol id="ic-rodada" viewBox="0 0 24 24" fill="none" stroke="currentColor" stroke-width="2" stroke-linecap="round" stroke-linejoin="round">
    <!-- parceria: elo/link -->
    <path d="M10 13a5 5 0 0 1 0-7l1-1a5 5 0 0 1 7 7l-1 1"/>
    <path d="M14 11a5 5 0 0 1 0 7l-1 1a5 5 0 0 1-7-7l1-1"/>
  </symbol>

  <symbol id="ic-pitch" viewBox="0 0 24 24" fill="none" stroke="currentColor" stroke-width="2" stroke-linecap="round" stroke-linejoin="round">
    <!-- microfone -->
    <rect x="8" y="2" width="8" height="12" rx="4"/>
    <path d="M12 14v6M8 20h8M5 10v2a7 7 0 0 0 14 0v-2"/>
  </symbol>

  <symbol id="ic-hackathon" viewBox="0 0 24 24" fill="none" stroke="currentColor" stroke-width="2" stroke-linecap="round" stroke-linejoin="round">
    <!-- </> -->
    <path d="M8 7l-5 5 5 5M16 7l5 5-5 5M14 4l-4 16"/>
  </symbol>

  <symbol id="ic-workshops" viewBox="0 0 24 24" fill="none" stroke="currentColor" stroke-width="2" stroke-linecap="round" stroke-linejoin="round">
    <!-- cubo -->
    <path d="M12 2l8 4v8l-8 4-8-4V6z"/>
    <path d="M12 2v8l8 4M12 10l-8 4"/>
  </symbol>
</svg>

